<?xml version="1.0" encoding="utf-8"?>
<!-- Generator: Adobe Illustrator 26.0.0, SVG Export Plug-In . SVG Version: 6.00 Build 0)  -->
<svg version="1.1" id="Capa_1" xmlns="http://www.w3.org/2000/svg" xmlns:xlink="http://www.w3.org/1999/xlink" x="0px" y="0px"
	 viewBox="0 0 324.6 231" style="enable-background:new 0 0 324.6 231;" xml:space="preserve">
<style type="text/css">
	.st0{fill:#FFFFFF;}
	.st1{fill:#8A26C4;}
	.st2{fill:#E6FC00;}
	.st3{fill:#6DF400;}
	.st4{fill:#00A501;}
</style>
<path d="M280.2,60.3l7.4-12.4c1.3-2.2,1.4-5,0.2-7.3c-1.3-2.4-3.8-3.9-6.5-3.9h-13.5c-1.4,0-2.7,0.4-3.9,1.1
	c-1.1-0.7-2.5-1.1-3.8-1.1h-12.4c-2.1,0-4.1,0.9-5.5,2.4c-0.3,0.3-0.5,0.6-0.7,0.9c-1-0.7-2.1-1.2-3.2-1.7c-2.5-1.1-5.2-1.6-7.9-1.6
	h-19.2c-2.7,0-5.1,1.4-6.3,3.6c-1.3-2.2-3.6-3.6-6.3-3.6h-17.8c-2.1,0-4,0.9-5.4,2.4c-1.3-1.5-3.3-2.4-5.4-2.4h-12.5
	c-1.2,0-2.3,0.3-3.3,0.8c-1-0.5-2.1-0.8-3.3-0.8h-12.5c-2,0-3.8,0.8-5.2,2.2c-0.4,0.4-0.7,0.8-1,1.2c-0.7-0.4-1.4-0.9-2.1-1.3
	c-3.9-2-8.2-3-13-3s-9.2,1-13,3c-3.6,1.9-6.6,4.5-8.8,7.8c-0.1,0.1-0.1,0.2-0.2,0.3c-0.1,0.1-0.1,0.2-0.2,0.3
	c-0.1,0.1-0.1,0.2-0.2,0.3c-0.1,0.1-0.1,0.2-0.2,0.3c-0.1,0.1-0.1,0.2-0.2,0.3c-0.1,0.1-0.1,0.2-0.2,0.3c-0.1,0.1-0.1,0.2-0.2,0.3
	c-0.1,0.1-0.1,0.2-0.2,0.3c-0.1,0.1-0.1,0.2-0.2,0.3c-0.1,0.1-0.1,0.2-0.2,0.3c-0.1,0.1-0.1,0.2-0.2,0.3c-0.1,0.1-0.1,0.2-0.2,0.3
	c-0.1,0.1-0.1,0.2-0.2,0.3c-0.1,0.1-0.1,0.2-0.2,0.3c-0.1,0.1-0.1,0.2-0.2,0.3c-0.1,0.1-0.1,0.2-0.2,0.3c-0.1,0.1-0.1,0.2-0.2,0.3
	c-0.1,0.1-0.1,0.2-0.2,0.3c-0.1,0.1-0.1,0.2-0.2,0.3c-0.1,0.1-0.1,0.2-0.2,0.3c-0.1,0.1-0.1,0.2-0.2,0.3c-0.1,0.1-0.1,0.2-0.2,0.3
	c-0.1,0.1-0.1,0.2-0.2,0.3c-0.1,0.1-0.1,0.2-0.2,0.3c-0.1,0.1-0.1,0.2-0.2,0.3c-0.1,0.1-0.1,0.2-0.2,0.3c-0.1,0.1-0.1,0.2-0.2,0.3
	c-0.1,0.1-0.1,0.2-0.2,0.3c-0.1,0.1-0.1,0.2-0.2,0.3c-0.1,0.1-0.1,0.2-0.2,0.3c-0.3,0.5-0.6,0.9-0.9,1.4c-2.2,3.8-3.4,8.1-3.4,12.8
	c0,2,0.2,3.8,0.6,5.6l-65.7-1.2l68.4,33c-0.7,2.4-1,4.9-1,7.7c0,2.5,0.3,4.7,0.8,6.9H51.3l45.2,20.1c0,0-0.1,0.1-0.1,0.1
	c-0.1,0.1-0.2,0.2-0.2,0.3c-0.1,0.1-0.2,0.2-0.2,0.3c-0.1,0.1-0.2,0.2-0.2,0.3c-0.1,0.1-0.2,0.2-0.2,0.3c-0.1,0.1-0.2,0.2-0.2,0.3
	c-0.1,0.1-0.2,0.2-0.2,0.3c-0.1,0.1-0.2,0.2-0.2,0.3c-0.1,0.1-0.2,0.2-0.2,0.3c-0.1,0.1-0.2,0.2-0.2,0.3c-0.1,0.1-0.2,0.2-0.2,0.3
	c-0.1,0.1-0.2,0.2-0.2,0.3c-0.1,0.1-0.2,0.2-0.2,0.3c-0.1,0.1-0.2,0.2-0.2,0.3c-0.1,0.1-0.2,0.2-0.2,0.3c-0.1,0.1-0.2,0.2-0.2,0.3
	c-0.1,0.1-0.2,0.2-0.2,0.3c-0.1,0.1-0.2,0.2-0.2,0.3c-0.1,0.1-0.2,0.2-0.2,0.3c-0.1,0.1-0.2,0.2-0.2,0.3c-0.1,0.1-0.2,0.2-0.2,0.3
	c-0.1,0.1-0.2,0.2-0.2,0.3c-0.1,0.1-0.2,0.2-0.2,0.3c-0.1,0.1-0.2,0.2-0.2,0.3c-0.1,0.1-0.2,0.2-0.2,0.3c-0.1,0.1-0.2,0.2-0.2,0.3
	c-0.1,0.1-0.2,0.2-0.2,0.3c-0.1,0.1-0.2,0.2-0.2,0.3c-0.9,1.2-1.3,2.7-1.3,4.2v1.6c0,7.4,2,13.3,6,17.3c4,4,9.8,6.1,17.2,6.1
	c4.7,0,8.7-0.8,12-2.4c1.3,0.9,2.8,1.5,4.4,1.5h12.4c2.1,0,4.1-0.9,5.4-2.4h2.5c1.4,1.5,3.3,2.4,5.4,2.4h12.4c0.4,0,0.8,0,1.2-0.1
	c0.4,0.1,0.8,0.1,1.2,0.1h12.5c0.5,0,0.9-0.1,1.4-0.1l73.7,29.6l-40.6-34.1c0.1-0.1,0.1-0.2,0.2-0.3c0.1-0.1,0.2-0.2,0.2-0.3
	c0.1-0.1,0.2-0.2,0.2-0.3c0.1-0.1,0.2-0.2,0.2-0.3c0.1-0.1,0.2-0.2,0.2-0.3c0.1-0.1,0.2-0.2,0.2-0.3c0.1-0.1,0.2-0.2,0.2-0.3
	c0.1-0.1,0.2-0.2,0.2-0.3c0.1-0.1,0.2-0.2,0.2-0.3c0.1-0.1,0.2-0.2,0.2-0.3c0.1-0.1,0.2-0.2,0.2-0.3c0.1-0.1,0.2-0.2,0.2-0.3
	c0.1-0.1,0.2-0.2,0.2-0.3c0.1-0.1,0.2-0.2,0.2-0.3c0.1-0.1,0.2-0.2,0.2-0.3c0.1-0.1,0.2-0.2,0.2-0.3c0.1-0.1,0.2-0.2,0.2-0.3
	c0.1-0.1,0.2-0.2,0.2-0.3c0.1-0.1,0.2-0.2,0.2-0.3c0.1-0.1,0.2-0.2,0.2-0.3c0.1-0.1,0.2-0.2,0.2-0.3c0.1-0.1,0.2-0.2,0.2-0.3
	c0.1-0.1,0.2-0.2,0.2-0.3c0.1-0.1,0.2-0.2,0.2-0.3c0.1-0.1,0.2-0.2,0.2-0.3c0.1-0.1,0.2-0.2,0.2-0.3c0.1-0.1,0.2-0.2,0.2-0.3
	c0.8-1.2,1.3-2.7,1.3-4.3v-22.8h21.1c2,0,3.8-0.8,5.2-2.2c0.4-0.4,0.8-0.9,1.1-1.4c0.1-0.1,0.2-0.2,0.2-0.3c0.1-0.1,0.2-0.2,0.2-0.3
	c0.1-0.1,0.2-0.2,0.2-0.3c0.1-0.1,0.2-0.2,0.2-0.3c0.1-0.1,0.2-0.2,0.2-0.3c0.1-0.1,0.2-0.2,0.2-0.3c0.1-0.1,0.2-0.2,0.2-0.3
	c0.1-0.1,0.2-0.2,0.2-0.3c0.1-0.1,0.2-0.2,0.2-0.3c0.1-0.1,0.2-0.2,0.2-0.3c0.1-0.1,0.2-0.2,0.2-0.3c0.1-0.1,0.2-0.2,0.2-0.3
	c0.1-0.1,0.2-0.2,0.2-0.3c0.1-0.1,0.2-0.2,0.2-0.3c0.1-0.1,0.2-0.2,0.2-0.3c0.1-0.1,0.2-0.2,0.2-0.3c0.1-0.1,0.2-0.2,0.2-0.3
	c0.1-0.1,0.2-0.2,0.2-0.3c0.1-0.1,0.2-0.2,0.2-0.3c0.1-0.1,0.2-0.2,0.2-0.3c0.1-0.1,0.2-0.2,0.2-0.3c0.1-0.1,0.2-0.2,0.2-0.3
	c0.1-0.1,0.2-0.2,0.2-0.3c0.1-0.1,0.2-0.2,0.2-0.3c0.1-0.1,0.2-0.2,0.2-0.3c0.1-0.1,0.2-0.2,0.2-0.3c0.1-0.1,0.2-0.2,0.2-0.3
	c0.1-0.1,0.2-0.2,0.2-0.3c0.1-0.1,0.2-0.2,0.2-0.3c0.1-0.1,0.2-0.2,0.2-0.3c0.9-1.2,1.3-2.7,1.3-4.2v-9.8c0-1.2-0.3-2.3-0.7-3.2v-7
	c0.5-1,0.7-2.1,0.7-3.2v-4c0.5,0.1,1.1,0.2,1.6,0.2h13.5c2.7,0,5.1-1.4,6.4-3.8c0,0,0,0,0,0c0.1-0.1,0.2-0.2,0.2-0.3c0,0,0,0,0,0
	c0.1-0.1,0.2-0.2,0.2-0.3c0,0,0,0,0,0c0.1-0.1,0.2-0.2,0.2-0.3c0,0,0,0,0,0c0.1-0.1,0.2-0.2,0.2-0.3c0,0,0,0,0,0
	c0.1-0.1,0.2-0.2,0.2-0.3c0,0,0,0,0,0c0.1-0.1,0.2-0.2,0.2-0.3c0,0,0,0,0,0c0.1-0.1,0.2-0.2,0.2-0.3c0,0,0,0,0,0
	c0.1-0.1,0.2-0.2,0.2-0.3c0,0,0,0,0,0c0.1-0.1,0.2-0.2,0.2-0.3c0,0,0,0,0,0c0.1-0.1,0.2-0.2,0.2-0.3c0,0,0,0,0,0
	c0.1-0.1,0.2-0.2,0.2-0.3c0,0,0,0,0,0c0.1-0.1,0.2-0.2,0.2-0.3c0,0,0,0,0,0c0.1-0.1,0.2-0.2,0.2-0.3c0,0,0,0,0,0
	c0.1-0.1,0.2-0.2,0.2-0.3c0,0,0,0,0,0c0.1-0.1,0.2-0.2,0.2-0.3c0,0,0,0,0,0c0.1-0.1,0.2-0.2,0.2-0.3c0,0,0,0,0,0
	c0.1-0.1,0.2-0.2,0.2-0.3c0,0,0,0,0,0c0.1-0.1,0.2-0.2,0.2-0.3c0,0,0,0,0,0c0.1-0.1,0.2-0.2,0.2-0.3c0,0,0,0,0,0
	c0.1-0.1,0.2-0.2,0.2-0.3c0,0,0,0,0,0c0.1-0.1,0.2-0.2,0.2-0.3c0,0,0,0,0,0c0.1-0.1,0.2-0.2,0.2-0.3c0,0,0,0,0,0
	c0.1-0.1,0.2-0.2,0.2-0.3c0,0,0,0,0,0c0.1-0.1,0.2-0.2,0.2-0.3c0,0,0,0,0,0c0.1-0.1,0.2-0.2,0.2-0.3c0,0,0,0,0,0
	c0.1-0.1,0.2-0.2,0.2-0.3c0,0,0,0,0,0c0.1-0.1,0.2-0.2,0.2-0.3c0,0,0,0,0,0c0.1-0.1,0.2-0.2,0.2-0.3c0,0,0,0,0,0
	c0.1-0.1,0.2-0.2,0.2-0.3c0,0,0,0,0,0c0.1-0.1,0.2-0.2,0.2-0.3c0,0,0,0,0,0c0.1-0.1,0.2-0.2,0.2-0.3c1.2-2.1,1.3-4.7,0.2-6.9
	L280.2,60.3z"/>
<g>
	<path class="st0" d="M119,100.1c-1.7,0-3,0.4-3.9,1.2s-1.3,1.9-1.3,3.4c0,1.5,0.4,2.6,1.3,3.4s2.2,1.2,3.9,1.2h2.7
		c0.2,0,0.3-0.1,0.3-0.4v-6.6c0-0.1,0-0.2,0.1-0.2s0.2-0.1,0.2-0.1h12c0.1,0,0.2,0,0.2,0.1s0.1,0.2,0.1,0.2v18.9
		c0,0.1,0,0.2-0.1,0.2s-0.2,0.1-0.2,0.1h-16.6c-5.6,0-9.9-1.5-13-4.4s-4.6-7.1-4.6-12.4s1.5-9.5,4.6-12.4s7.4-4.4,13-4.4h16.6
		c0.1,0,0.2,0,0.2,0.1s0.1,0.2,0.1,0.2v11.5c0,0.1,0,0.2-0.1,0.2s-0.2,0.1-0.2,0.1H119z"/>
	<path class="st0" d="M175.3,121c0,0.1,0,0.2-0.1,0.3s-0.2,0.2-0.3,0.2h-12.4c-0.2,0-0.3-0.1-0.4-0.3l-0.5-1.8
		c0-0.2-0.2-0.3-0.4-0.3h-11c-0.2,0-0.3,0.1-0.3,0.3l-0.5,1.8c0,0.2-0.2,0.3-0.3,0.3h-12.4c-0.1,0-0.2,0-0.3-0.1s-0.1-0.2,0-0.3
		l10.2-32.9c0.1-0.2,0.2-0.3,0.4-0.3h17.8c0.2,0,0.3,0.1,0.3,0.3L175.3,121z M158.2,109.6c0.1,0,0.2,0,0.3-0.1s0.1-0.2,0.1-0.3
		l-2.3-7.9l0-0.1c0-0.2-0.2-0.3-0.4-0.3c-0.2,0-0.3,0.1-0.3,0.3l0,0.1l-2.3,7.9c0,0.1,0,0.2,0.1,0.3s0.2,0.1,0.3,0.1H158.2z"/>
	<path class="st0" d="M217.4,87.9c0.2,0,0.4,0.1,0.4,0.4v32.9c0,0.2-0.1,0.4-0.4,0.4h-12.5c-0.2,0-0.4-0.1-0.4-0.4v-9
		c0-0.2-0.1-0.3-0.3-0.4s-0.3,0.1-0.4,0.3l-2.4,9.2c0,0.2-0.2,0.3-0.4,0.3h-7.4c-0.2,0-0.3-0.1-0.4-0.3l-2.4-9.1
		c-0.1-0.2-0.2-0.3-0.4-0.3s-0.3,0.1-0.3,0.4v8.9c0,0.2-0.1,0.4-0.4,0.4h-12.5c-0.2,0-0.4-0.1-0.4-0.4V88.3c0-0.2,0.1-0.4,0.4-0.4
		h15c0.2,0,0.3,0.1,0.4,0.3l4.3,15.3c0,0.2,0.2,0.3,0.4,0.3s0.3-0.1,0.4-0.3l4.3-15.3c0-0.2,0.2-0.3,0.4-0.3H217.4z"/>
	<path class="st0" d="M235.1,98.4c-0.1,0-0.2,0-0.2,0.1s-0.1,0.2-0.1,0.2v1.1c0,0.1,0,0.2,0.1,0.2s0.2,0.1,0.2,0.1h15.8
		c0.1,0,0.2,0,0.2,0.1s0.1,0.2,0.1,0.2v8.4c0,0.1,0,0.2-0.1,0.2s-0.2,0.1-0.2,0.1h-15.8c-0.1,0-0.2,0-0.2,0.1s-0.1,0.2-0.1,0.2v1.1
		c0,0.1,0,0.2,0.1,0.2s0.2,0.1,0.2,0.1h16.5c0.2,0,0.4,0.1,0.4,0.3v9.8c0,0.1,0,0.2-0.1,0.2s-0.2,0.1-0.2,0.1H222
		c-0.1,0-0.2,0-0.2-0.1s-0.1-0.2-0.1-0.2V88.3c0-0.1,0-0.2,0.1-0.2s0.2-0.1,0.2-0.1h29.7c0.1,0,0.2,0,0.2,0.1s0.1,0.2,0.1,0.2V98
		c0,0.1,0,0.2-0.1,0.2s-0.2,0.1-0.2,0.1H235.1z"/>
</g>
<g>
	<g>
		<path class="st1" d="M122.9,77.4c-0.2,0.1-0.3,0.2-0.2,0.4l1.2,3.1c0,0.1,0,0.2,0,0.3s-0.2,0.2-0.3,0.2h-13.5
			c-0.1,0-0.2-0.1-0.3-0.2s-0.1-0.2,0-0.3l1.2-3.1c0.1-0.2,0-0.4-0.2-0.4c-3.9-1.1-7-3.1-9.3-6.2s-3.4-6.6-3.4-10.7
			c0-3.4,0.8-6.5,2.4-9.2s3.8-4.8,6.7-6.3s6.1-2.2,9.8-2.2s6.9,0.7,9.8,2.2c2.9,1.5,5.1,3.6,6.7,6.3s2.4,5.8,2.4,9.2
			c0,4.2-1.2,7.7-3.5,10.7S126.8,76.3,122.9,77.4z M113.2,64.2c1,1,2.2,1.5,3.6,1.5s2.6-0.5,3.6-1.5s1.5-2.3,1.5-3.7
			c0-1.5-0.5-2.8-1.4-3.8s-2.2-1.5-3.7-1.5s-2.7,0.5-3.7,1.5s-1.4,2.2-1.4,3.8C111.7,61.9,112.2,63.2,113.2,64.2z"/>
		<path class="st1" d="M169.8,43.7c0.2,0,0.3,0.1,0.3,0.4v17.8c0,5.6-1.3,9.8-3.9,12.4s-6.7,3.9-12.3,3.9c-5.5,0-9.6-1.3-12.2-4
			s-4-6.8-4-12.3V44c0-0.1,0-0.2,0.1-0.2s0.2-0.1,0.2-0.1h12.5c0.1,0,0.2,0,0.2,0.1s0.1,0.2,0.1,0.2v17.8c0,2.6,1,4,3,4
			c2,0,3-1.3,3-4V44c0-0.2,0.1-0.4,0.3-0.4H169.8z"/>
		<path class="st1" d="M209,76.8c0,0.1,0,0.2-0.1,0.3s-0.2,0.2-0.3,0.2h-12.4c-0.2,0-0.3-0.1-0.4-0.3l-0.5-1.8
			c0-0.2-0.2-0.3-0.4-0.3h-11c-0.2,0-0.3,0.1-0.3,0.3l-0.5,1.8c0,0.2-0.2,0.3-0.3,0.3h-12.4c-0.1,0-0.2,0-0.3-0.1s-0.1-0.2,0-0.3
			l10.2-32.9c0.1-0.2,0.2-0.3,0.4-0.3h17.8c0.2,0,0.3,0.1,0.3,0.3L209,76.8z M191.9,65.4c0.1,0,0.2,0,0.3-0.1s0.1-0.2,0.1-0.3
			l-2.3-7.9l0-0.1c0-0.2-0.2-0.3-0.4-0.3c-0.2,0-0.3,0.1-0.3,0.3l0,0.1l-2.3,7.9c0,0.1,0,0.2,0.1,0.3s0.2,0.1,0.3,0.1H191.9z"/>
		<path class="st1" d="M244.9,76.8c0.1,0.1,0.1,0.2,0,0.4s-0.2,0.2-0.3,0.2H231c-0.1,0-0.2-0.1-0.3-0.2l-3.8-6.5
			c-0.1-0.1-0.2-0.2-0.3-0.2h-2.3c-0.2,0-0.3,0.1-0.3,0.3v6.2c0,0.1,0,0.2-0.1,0.2s-0.2,0.1-0.2,0.1h-12.5c-0.2,0-0.4-0.1-0.4-0.4
			V44c0-0.2,0.1-0.4,0.3-0.4h19.2c1.8,0,3.5,0.4,5.2,1.1s3.1,1.7,4.3,2.8s2.1,2.6,2.8,4.3s1.1,3.4,1.1,5.2c0,1.9-0.4,3.7-1.1,5.4
			s-1.8,3.1-3.1,4.4c-0.1,0.1-0.1,0.3-0.1,0.4L244.9,76.8z M227.3,60.2c0.8,0,1.5-0.3,2.1-0.8s1-1.2,1-2c0.1-0.9-0.2-1.7-0.8-2.4
			s-1.4-1-2.2-1h-3.2c-0.1,0-0.2,0-0.2,0.1s-0.1,0.2-0.1,0.2v5.4c0,0.2,0.1,0.4,0.4,0.4H227.3z"/>
		<path class="st1" d="M281.5,76.7c0.1,0.1,0.1,0.2,0,0.4s-0.2,0.2-0.3,0.2h-13.5c-0.1,0-0.2-0.1-0.3-0.2L261,66.2
			c-0.1-0.2-0.2-0.2-0.4-0.2s-0.3,0.2-0.3,0.4v10.5c0,0.2-0.1,0.4-0.4,0.4h-12.4c-0.2,0-0.4-0.1-0.4-0.4V44.1c0-0.1,0-0.2,0.1-0.3
			s0.2-0.1,0.3-0.1H260c0.1,0,0.2,0,0.3,0.1s0.1,0.2,0.1,0.3v10.2c0,0.2,0.1,0.3,0.3,0.4s0.3,0,0.4-0.2l6.3-10.6
			c0.1-0.1,0.2-0.2,0.3-0.2h13.5c0.2,0,0.3,0.1,0.3,0.2s0.1,0.3,0,0.4L272.2,60c-0.1,0.1-0.1,0.2,0,0.4L281.5,76.7z"/>
	</g>
</g>
<g>
	<path class="st0" d="M133.7,128.9c0.1,0,0.2,0,0.3,0.1s0.1,0.2,0.1,0.3V147c0,5.6-1.3,9.8-3.9,12.4c-2.6,2.6-6.7,3.9-12.3,3.9
		c-5.5,0-9.6-1.3-12.2-4s-4-6.8-4-12.3v-1.6c0-0.1,0-0.2,0.1-0.2s0.2-0.1,0.2-0.1h12.5c0.2,0,0.3,0.1,0.3,0.4v1.6c0,2.7,1,4,3,4
		s3-1.3,3-4v-17.8c0-0.1,0-0.2,0.1-0.3s0.2-0.1,0.2-0.1H133.7z"/>
	<path class="st0" d="M172.9,162c0,0.1,0,0.2-0.1,0.3s-0.2,0.2-0.3,0.2h-12.4c-0.2,0-0.3-0.1-0.4-0.3l-0.5-1.8
		c0-0.2-0.2-0.3-0.4-0.3h-11c-0.2,0-0.3,0.1-0.3,0.3l-0.5,1.8c0,0.2-0.2,0.3-0.3,0.3h-12.4c-0.1,0-0.2,0-0.3-0.1s-0.1-0.2,0-0.3
		l10.2-32.9c0.1-0.2,0.2-0.3,0.4-0.3h17.8c0.2,0,0.3,0.1,0.3,0.3L172.9,162z M155.8,150.6c0.1,0,0.2,0,0.3-0.1s0.1-0.2,0.1-0.3
		l-2.3-7.9l0-0.1c0-0.2-0.2-0.3-0.4-0.3c-0.2,0-0.3,0.1-0.3,0.3l0,0.1l-2.3,7.9c0,0.1,0,0.2,0.1,0.3s0.2,0.1,0.3,0.1H155.8z"/>
	<path class="st0" d="M215,128.9c0.2,0,0.4,0.1,0.4,0.4v32.9c0,0.2-0.1,0.4-0.4,0.4h-12.5c-0.2,0-0.4-0.1-0.4-0.4v-9
		c0-0.2-0.1-0.3-0.3-0.4s-0.3,0.1-0.4,0.3l-2.4,9.2c0,0.2-0.2,0.3-0.4,0.3h-7.4c-0.2,0-0.3-0.1-0.4-0.3l-2.4-9.1
		c-0.1-0.2-0.2-0.3-0.4-0.3s-0.3,0.1-0.3,0.4v8.9c0,0.2-0.1,0.4-0.4,0.4H175c-0.2,0-0.4-0.1-0.4-0.4v-32.9c0-0.2,0.1-0.4,0.4-0.4h15
		c0.2,0,0.3,0.1,0.4,0.3l4.3,15.3c0,0.2,0.2,0.3,0.4,0.3s0.3-0.1,0.4-0.3l4.3-15.3c0-0.2,0.2-0.3,0.4-0.3H215z"/>
</g>
<polygon class="st2" points="224.9,191.3 198.1,170.1 175,170.3 "/>
<polygon class="st3" points="111.8,138.5 99.3,138.5 76.2,128.2 111.8,128.2 "/>
<path class="st4" d="M96.4,85.2c0.5-0.5,1-0.9,1.6-1.4c-0.9-0.6-1.7-1.3-2.5-2H46.4l42.6,19C89.7,94.5,92.1,89.3,96.4,85.2z"/>
</svg>
